HIERARCHY
ROOT Hips
{
	OFFSET 0.000000 71.427986 0.000000
	CHANNELS 6 Xposition Yposition Zposition Xrotation Yrotation Zrotation
	JOINT Pelvis
	{
		OFFSET 0.000000 0.000000 0.000000
		CHANNELS 3 Xrotation Yrotation Zrotation
		JOINT LeftUpLeg
		{
			OFFSET 6.797100 -2.508499 -1.318700
			CHANNELS 3 Xrotation Yrotation Zrotation
			JOINT LeftLeg
			{
				OFFSET 0.069008 -29.241863 0.690200
				CHANNELS 3 Xrotation Yrotation Zrotation
				JOINT LeftFoot
				{
					OFFSET -0.069008 -29.568123 -0.266800
					CHANNELS 3 Xrotation Yrotation Zrotation
					JOINT LeftToeBase
					{
						OFFSET 3.145500 -8.631000 16.059900
						CHANNELS 3 Xrotation Yrotation Zrotation
						End Site
						{
							OFFSET 0.000000 18.501587 0.000000
						}
					}
				}
			}
			JOINT Left_ShortSleeve
			{
				OFFSET 0.265923 -10.480953 1.153800
				CHANNELS 3 Xrotation Yrotation Zrotation
				End Site
				{
					OFFSET 1.725763 19.823879 0.000000
				}
			}
		}
		JOINT RightUpLeg
		{
			OFFSET -6.797100 -2.508499 -1.318700
			CHANNELS 3 Xrotation Yrotation Zrotation
			JOINT RightLeg
			{
				OFFSET -0.082453 -29.241932 0.688000
				CHANNELS 3 Xrotation Yrotation Zrotation
				JOINT RightFoot
				{
					OFFSET 0.082453 -29.568058 -0.264600
					CHANNELS 3 Xrotation Yrotation Zrotation
					JOINT RightToeBase
					{
						OFFSET -3.115300 -8.682800 16.113400
						CHANNELS 3 Xrotation Yrotation Zrotation
						End Site
						{
							OFFSET 0.000000 18.567114 0.000000
						}
					}
				}
			}
			JOINT Right_ShortSleeve
			{
				OFFSET -0.265923 -10.480953 1.153800
				CHANNELS 3 Xrotation Yrotation Zrotation
				End Site
				{
					OFFSET -1.725766 19.823910 0.000000
				}
			}
		}
	}
	JOINT Spine
	{
		OFFSET 0.000000 13.368103 0.470500
		CHANNELS 3 Xrotation Yrotation Zrotation
		JOINT Spine1
		{
			OFFSET 0.147000 13.837402 0.538800
			CHANNELS 3 Xrotation Yrotation Zrotation
			JOINT Spine2
			{
				OFFSET 0.168000 16.242897 -1.435500
				CHANNELS 3 Xrotation Yrotation Zrotation
				JOINT Neck
				{
					OFFSET 0.217200 18.631500 -1.679100
					CHANNELS 3 Xrotation Yrotation Zrotation
					JOINT Head
					{
						OFFSET 0.000000 6.599396 1.385900
						CHANNELS 3 Xrotation Yrotation Zrotation
						JOINT Hat
						{
							OFFSET -0.532200 27.220596 -10.096100
							CHANNELS 3 Xrotation Yrotation Zrotation
							End Site
							{
								OFFSET 0.000000 22.029861 0.000000
							}
						}
						JOINT HairD
						{
							OFFSET -10.777400 17.437393 -1.325900
							CHANNELS 3 Xrotation Yrotation Zrotation
							JOINT HairD1
							{
								OFFSET -3.290299 -11.051193 1.062200
								CHANNELS 3 Xrotation Yrotation Zrotation
								End Site
								{
									OFFSET 0.000000 11.579437 0.000000
								}
							}
						}
						JOINT HairB
						{
							OFFSET -10.777400 17.437393 1.467900
							CHANNELS 3 Xrotation Yrotation Zrotation
							JOINT HairB1
							{
								OFFSET -1.561200 -12.956299 3.590200
								CHANNELS 3 Xrotation Yrotation Zrotation
								End Site
								{
									OFFSET 0.000000 13.534866 0.000000
								}
							}
						}
						JOINT HairA
						{
							OFFSET 9.713100 17.437393 1.467900
							CHANNELS 3 Xrotation Yrotation Zrotation
							JOINT HairA1
							{
								OFFSET 1.561200 -12.956299 3.590200
								CHANNELS 3 Xrotation Yrotation Zrotation
								End Site
								{
									OFFSET 0.000000 13.534866 0.000000
								}
							}
						}
						JOINT HairC
						{
							OFFSET 9.713100 17.437393 -1.325900
							CHANNELS 3 Xrotation Yrotation Zrotation
							JOINT HairC1
							{
								OFFSET 3.290300 -11.051193 1.062200
								CHANNELS 3 Xrotation Yrotation Zrotation
								End Site
								{
									OFFSET 0.000000 11.579437 0.000000
								}
							}
						}
					}
				}
				JOINT LeftShoulder
				{
					OFFSET 5.101800 15.108002 -2.763700
					CHANNELS 3 Xrotation Yrotation Zrotation
					JOINT LeftArm
					{
						OFFSET 9.825497 2.506317 -1.597400
						CHANNELS 3 Xrotation Yrotation Zrotation
						JOINT LeftForeArm
						{
							OFFSET 21.966244 0.000000 0.000000
							CHANNELS 3 Xrotation Yrotation Zrotation
							JOINT LeftHand
							{
								OFFSET 33.879036 0.000000 0.000000
								CHANNELS 3 Xrotation Yrotation Zrotation
								JOINT LeftHandThumb1
								{
									OFFSET 6.715286 -2.359680 3.363841
									CHANNELS 3 Xrotation Yrotation Zrotation
									JOINT LeftHandThumb2
									{
										OFFSET 2.507072 -1.447464 1.447461
										CHANNELS 3 Xrotation Yrotation Zrotation
										JOINT LeftHandThumb3
										{
											OFFSET 2.898338 -1.673355 1.673357
											CHANNELS 3 Xrotation Yrotation Zrotation
											End Site
											{
												OFFSET -0.295959 3.727692 -0.131651
											}
										}
									}
								}
								JOINT LeftHandIndex1
								{
									OFFSET 14.190811 -0.254547 3.840278
									CHANNELS 3 Xrotation Yrotation Zrotation
									JOINT LeftHandIndex2
									{
										OFFSET 3.551727 0.000000 -0.000000
										CHANNELS 3 Xrotation Yrotation Zrotation
										JOINT LeftHandIndex3
										{
											OFFSET 2.894196 0.000000 0.000000
											CHANNELS 3 Xrotation Yrotation Zrotation
											End Site
											{
												OFFSET -1.000603 2.690872 0.366626
											}
										}
									}
								}
								JOINT LeftHandMiddle1
								{
									OFFSET 13.776489 0.000000 0.000000
									CHANNELS 3 Xrotation Yrotation Zrotation
									JOINT LeftHandMiddle2
									{
										OFFSET 3.438232 0.000000 0.000000
										CHANNELS 3 Xrotation Yrotation Zrotation
										JOINT LeftHandMiddle3
										{
											OFFSET 3.691551 0.000000 0.000000
											CHANNELS 3 Xrotation Yrotation Zrotation
											End Site
											{
												OFFSET -1.082298 3.499527 0.457670
											}
										}
									}
								}
								JOINT LeftHandRing1
								{
									OFFSET 13.966164 -0.268127 -3.067488
									CHANNELS 3 Xrotation Yrotation Zrotation
									JOINT LeftHandRing2
									{
										OFFSET 3.162567 0.000000 0.000000
										CHANNELS 3 Xrotation Yrotation Zrotation
										JOINT LeftHandRing3
										{
											OFFSET 3.324348 0.000000 0.000000
											CHANNELS 3 Xrotation Yrotation Zrotation
											End Site
											{
												OFFSET -0.861900 3.184998 0.405154
											}
										}
									}
								}
								JOINT LeftHandPinky1
								{
									OFFSET 13.131393 -0.168503 -5.746925
									CHANNELS 3 Xrotation Yrotation Zrotation
									JOINT LeftHandPinky2
									{
										OFFSET 2.849182 0.000000 0.000000
										CHANNELS 3 Xrotation Yrotation Zrotation
										JOINT LeftHandPinky3
										{
											OFFSET 2.805038 0.000000 0.000000
											CHANNELS 3 Xrotation Yrotation Zrotation
											End Site
											{
												OFFSET -0.882500 2.642609 0.325652
											}
										}
									}
								}
							}
							JOINT Left_Sleeve
							{
								OFFSET 6.592125 -0.646545 0.805568
								CHANNELS 3 Xrotation Yrotation Zrotation
								End Site
								{
									OFFSET -0.000179 20.275787 -0.000000
								}
							}
						}
					}
				}
				JOINT RightShoulder
				{
					OFFSET -5.731700 15.108002 -2.763700
					CHANNELS 3 Xrotation Yrotation Zrotation
					JOINT RightArm
					{
						OFFSET -9.825497 2.506317 -1.597400
						CHANNELS 3 Xrotation Yrotation Zrotation
						JOINT RightForeArm
						{
							OFFSET -21.966242 0.000000 0.000000
							CHANNELS 3 Xrotation Yrotation Zrotation
							JOINT RightHand
							{
								OFFSET -33.879032 0.000000 0.000000
								CHANNELS 3 Xrotation Yrotation Zrotation
								JOINT RightHandThumb1
								{
									OFFSET -6.715286 -2.359680 3.363841
									CHANNELS 3 Xrotation Yrotation Zrotation
									JOINT RightHandThumb2
									{
										OFFSET -2.507072 -1.447464 1.447461
										CHANNELS 3 Xrotation Yrotation Zrotation
										JOINT RightHandThumb3
										{
											OFFSET -2.898338 -1.673355 1.673357
											CHANNELS 3 Xrotation Yrotation Zrotation
											End Site
											{
												OFFSET 0.295959 3.727692 -0.131651
											}
										}
									}
								}
								JOINT RightHandIndex1
								{
									OFFSET -14.190811 -0.254547 3.840278
									CHANNELS 3 Xrotation Yrotation Zrotation
									JOINT RightHandIndex2
									{
										OFFSET -3.551727 0.000000 -0.000000
										CHANNELS 3 Xrotation Yrotation Zrotation
										JOINT RightHandIndex3
										{
											OFFSET -2.894196 0.000000 0.000000
											CHANNELS 3 Xrotation Yrotation Zrotation
											End Site
											{
												OFFSET 1.000603 2.690872 0.366626
											}
										}
									}
								}
								JOINT RightHandMiddle1
								{
									OFFSET -13.776489 0.000000 0.000000
									CHANNELS 3 Xrotation Yrotation Zrotation
									JOINT RightHandMiddle2
									{
										OFFSET -3.438232 0.000000 0.000000
										CHANNELS 3 Xrotation Yrotation Zrotation
										JOINT RightHandMiddle3
										{
											OFFSET -3.691551 0.000000 0.000000
											CHANNELS 3 Xrotation Yrotation Zrotation
											End Site
											{
												OFFSET 1.082298 3.499527 0.457670
											}
										}
									}
								}
								JOINT RightHandRing1
								{
									OFFSET -13.966164 -0.268127 -3.067488
									CHANNELS 3 Xrotation Yrotation Zrotation
									JOINT RightHandRing2
									{
										OFFSET -3.162567 0.000000 0.000000
										CHANNELS 3 Xrotation Yrotation Zrotation
										JOINT RightHandRing3
										{
											OFFSET -3.324348 0.000000 0.000000
											CHANNELS 3 Xrotation Yrotation Zrotation
											End Site
											{
												OFFSET 0.861900 3.184998 0.405154
											}
										}
									}
								}
								JOINT RightHandPinky1
								{
									OFFSET -13.131393 -0.168503 -5.746925
									CHANNELS 3 Xrotation Yrotation Zrotation
									JOINT RightHandPinky2
									{
										OFFSET -2.849182 0.000000 0.000000
										CHANNELS 3 Xrotation Yrotation Zrotation
										JOINT RightHandPinky3
										{
											OFFSET -2.805038 0.000000 0.000000
											CHANNELS 3 Xrotation Yrotation Zrotation
											End Site
											{
												OFFSET 0.882500 2.642609 0.325652
											}
										}
									}
								}
							}
							JOINT Right_Sleeve
							{
								OFFSET -6.592125 -0.646545 0.805568
								CHANNELS 3 Xrotation Yrotation Zrotation
								End Site
								{
									OFFSET 0.000179 20.275787 -0.000000
								}
							}
						}
					}
				}
				JOINT Bind_Right_JacketString
				{
					OFFSET -3.534800 11.969597 7.200700
					CHANNELS 3 Xrotation Yrotation Zrotation
					JOINT Bind_Right_JacketString1
					{
						OFFSET -0.319900 -6.102600 2.794100
						CHANNELS 3 Xrotation Yrotation Zrotation
						End Site
						{
							OFFSET 0.000000 6.719452 0.000000
						}
					}
				}
				JOINT Bind_Left_JacketString
				{
					OFFSET 2.904800 11.969597 7.200700
					CHANNELS 3 Xrotation Yrotation Zrotation
					JOINT Bind_Left_JacketString1
					{
						OFFSET 0.364800 -5.904503 3.186800
						CHANNELS 3 Xrotation Yrotation Zrotation
						End Site
						{
							OFFSET 0.000000 6.719513 0.000000
						}
					}
				}
				JOINT HairE
				{
					OFFSET 5.915200 17.612701 -11.592200
					CHANNELS 3 Xrotation Yrotation Zrotation
					JOINT HairE1
					{
						OFFSET 0.289200 -7.171898 -1.284500
						CHANNELS 3 Xrotation Yrotation Zrotation
						End Site
						{
							OFFSET 0.000000 7.291756 0.000000
						}
					}
				}
				JOINT HairF
				{
					OFFSET -0.864800 17.612701 -11.592200
					CHANNELS 3 Xrotation Yrotation Zrotation
					JOINT HairF1
					{
						OFFSET 0.000000 -14.087097 -2.127501
						CHANNELS 3 Xrotation Yrotation Zrotation
						End Site
						{
							OFFSET 0.000000 14.246841 0.000000
						}
					}
				}
				JOINT HairG
				{
					OFFSET -8.087700 17.612701 -11.592200
					CHANNELS 3 Xrotation Yrotation Zrotation
					JOINT HairG1
					{
						OFFSET -0.293600 -6.081398 -0.910100
						CHANNELS 3 Xrotation Yrotation Zrotation
						End Site
						{
							OFFSET 0.000000 6.156120 0.000000
						}
					}
				}
			}
		}
	}
	JOINT Pouch
	{
		OFFSET 0.000000 4.394501 10.847300
		CHANNELS 3 Xrotation Yrotation Zrotation
		End Site
		{
			OFFSET 0.000000 21.880577 0.000000
		}
	}
	JOINT Bag
	{
		OFFSET -13.229000 4.813004 -0.593300
		CHANNELS 3 Xrotation Yrotation Zrotation
		End Site
		{
			OFFSET 0.000000 21.880577 0.000000
		}
	}
	JOINT OccupyGuyFacialAnim_Joint
	{
		OFFSET 1.000000 -70.206398 -1.655000
		CHANNELS 3 Xrotation Yrotation Zrotation
		End Site
		{
			OFFSET 0.000000 21.880577 0.000000
		}
	}
}
MOTION
Frames: 5
Frame Time: 0.033333
-0.035149 70.332664 0.122354 2.912483 -28.986165 1.187801 -0.000000 0.000000 -0.000000 -14.989967 18.704944 9.347083 17.129459 13.204085 -0.903366 -4.460919 -4.009202 -5.086157 -0.000000 0.000000 -0.000000 -0.000000 -0.000001 -0.000000 -5.454274 -1.940860 -9.246352 10.906540 9.737969 0.828121 -8.842251 -1.015004 7.077814 0.000000 -0.000002 0.000000 0.000000 0.000001 -0.000000 7.835763 -0.372451 -2.677175 1.099186 -0.879039 2.383211 1.108609 -0.588781 2.446091 -3.842310 18.019263 -6.496404 -6.332266 13.021494 0.301614 -0.000000 -0.000000 0.000000 -0.000000 -0.000000 0.000000 -0.000000 -0.000000 0.000000 -0.000000 -0.000000 0.000000 -0.000000 -0.000000 -0.000000 -0.000000 -0.000000 0.000000 -0.000000 -0.000000 -0.000000 -0.000000 -0.000000 0.000000 -0.000000 -0.000000 0.000000 -0.057390 -8.759473 -0.061013 -55.250817 0.329439 -41.449365 11.584342 -65.827239 13.005495 -50.190986 12.352895 4.610797 17.551583 -5.699190 -12.932299 10.850508 26.127707 8.644803 0.000001 0.000001 -0.000000 13.980899 1.201543 -55.004415 0.370783 1.161732 -65.441852 0.000000 0.000001 -0.000002 7.504712 1.174524 -63.778537 1.807802 1.475617 -64.567909 -0.000000 -0.000001 -0.000007 8.574294 2.179087 -75.149047 -0.207616 1.009266 -57.855042 -0.000001 0.000000 -0.000002 10.030076 13.637107 -84.750285 0.877098 0.062356 -64.595524 0.000001 -0.000001 -0.000001 -0.000002 0.000002 0.000001 4.849289 7.760107 5.560460 -0.933255 -2.177014 61.845655 11.299236 18.943916 -3.987726 -0.538018 6.611466 5.837912 15.788510 -2.734495 -17.205870 -2.198311 -31.113550 7.361253 -0.000000 -0.000002 0.000001 2.356592 -3.665489 8.486437 -2.148054 -2.474378 18.673099 -0.000000 0.000000 0.000000 -1.949736 -5.711903 13.664647 0.285513 -5.118480 26.987904 -0.000000 -0.000000 -0.000001 -3.285449 -8.563100 11.765567 4.016009 -4.058721 33.261584 0.000001 -0.000000 -0.000004 -6.472960 -11.357392 23.259678 10.723070 -2.562633 34.823709 -0.000000 0.000001 0.000001 -0.000001 -0.000000 -0.000000 0.000001 -0.000002 -0.000000 0.000002 0.000000 -0.000001 0.000001 -0.000002 0.000000 0.000001 -0.000002 0.000000 0.000001 -0.000002 -0.000000 0.000002 0.000000 -0.000000 0.000001 -0.000002 0.000000 0.000001 -0.000002 0.000000 0.000001 -0.000002 -0.000000 0.000002 0.000000 -0.000000 -0.000000 0.000000 -0.000000 -0.000000 0.000000 -0.000000 -0.000000 0.000000 -0.000000 
-0.041326 70.334686 0.127721 2.936181 -28.956403 1.212270 0.000000 0.000000 0.000000 -14.974520 18.712306 9.324281 17.065945 13.221277 -0.898813 -4.426857 -4.010238 -5.090734 0.000000 -0.000000 -0.000000 0.000000 -0.000000 -0.000000 -5.366917 -1.946134 -9.219709 10.739863 9.612684 0.787016 -8.811928 -1.023258 7.094287 -0.000000 -0.000002 0.000000 -0.000000 -0.000001 -0.000001 7.870326 -0.369554 -2.657865 1.059207 -0.883134 2.362040 1.068138 -0.590625 2.424127 -3.801707 17.968172 -6.448347 -6.314948 13.006310 0.270581 0.000000 -0.000000 0.000000 0.000000 -0.000000 0.000000 0.000000 -0.000000 0.000000 0.000000 -0.000000 0.000000 0.000000 -0.000000 -0.000000 0.000000 -0.000000 0.000000 0.000000 -0.000000 -0.000000 0.000000 -0.000000 0.000000 0.000000 -0.000000 0.000000 -0.062735 -8.733361 -0.011459 -55.304496 0.011772 -40.801412 12.141267 -65.785869 13.539065 -50.176550 12.316288 4.587150 17.551585 -5.699187 -12.932296 10.850505 26.127709 8.644807 -0.000002 -0.000000 -0.000001 13.980898 1.201542 -55.004418 0.370782 1.161732 -65.441852 0.000000 0.000000 -0.000000 7.504712 1.174526 -63.778524 1.807799 1.475618 -64.567909 0.000000 0.000000 -0.000003 8.574296 2.179084 -75.149040 -0.207616 1.009266 -57.855049 -0.000000 0.000000 -0.000002 10.030076 13.637104 -84.750285 0.877098 0.062357 -64.595524 0.000001 -0.000000 -0.000001 0.000000 -0.000002 0.000001 5.100167 7.697131 5.776453 -0.920225 -2.223021 61.660346 11.314792 19.434805 -4.068977 -0.547473 6.576432 5.974583 15.788513 -2.734494 -17.205870 -2.198310 -31.113554 7.361258 -0.000000 0.000002 0.000002 2.356587 -3.665486 8.486432 -2.148049 -2.474382 18.673093 0.000001 0.000000 0.000000 -1.949731 -5.711898 13.664620 0.285523 -5.118476 26.987904 0.000001 -0.000000 -0.000001 -3.285449 -8.563099 11.765530 4.016024 -4.058713 33.261624 -0.000000 -0.000000 -0.000004 -6.472951 -11.357373 23.259680 10.723050 -2.562655 34.823723 -0.000001 0.000000 -0.000001 -0.000001 -0.000000 0.000001 -0.000000 -0.000003 -0.000000 0.000000 -0.000001 -0.000000 -0.000000 -0.000003 0.000000 -0.000000 -0.000003 0.000000 -0.000000 -0.000003 -0.000000 0.000000 -0.000001 -0.000000 -0.000000 -0.000003 0.000000 -0.000000 -0.000003 0.000000 -0.000000 -0.000003 -0.000000 0.000000 -0.000001 -0.000000 0.000000 0.000000 0.000000 0.000000 0.000000 0.000000 0.000000 0.000000 0.000000 
-0.041430 70.328751 0.133484 3.027775 -28.982733 1.218640 -0.000000 0.000000 -0.000000 -15.102721 18.710439 9.385599 17.147060 13.238303 -0.909871 -4.469924 -4.006560 -5.114816 0.000000 -0.000000 0.000000 -0.000001 -0.000001 -0.000000 -5.249155 -1.955829 -9.156762 10.359494 9.546133 0.771585 -8.703028 -1.019817 7.126948 -0.000000 -0.000000 0.000000 -0.000000 0.000000 -0.000000 7.802966 -0.339861 -2.548219 1.061436 -0.861492 2.320565 1.073994 -0.574996 2.378977 -3.835874 17.950487 -6.443145 -6.253448 12.984060 0.265035 0.000000 -0.000000 0.000000 0.000000 -0.000000 0.000000 0.000000 -0.000000 0.000000 0.000000 -0.000000 0.000000 0.000000 -0.000000 0.000000 0.000000 -0.000000 0.000000 0.000000 -0.000000 0.000000 0.000000 -0.000000 0.000000 0.000000 -0.000000 0.000000 -0.067417 -8.745143 0.039602 -55.371596 -0.268233 -40.135763 13.003674 -65.663854 14.353755 -50.121591 12.124239 4.550401 17.551585 -5.699193 -12.932303 10.850506 26.127705 8.644802 0.000003 0.000001 -0.000001 13.980897 1.201541 -55.004412 0.370783 1.161730 -65.441852 0.000001 0.000001 -0.000002 7.504713 1.174524 -63.778531 1.807802 1.475616 -64.567909 0.000000 0.000000 0.000002 8.574297 2.179083 -75.149047 -0.207616 1.009266 -57.855049 -0.000001 0.000001 0.000002 10.030076 13.637101 -84.750285 0.877099 0.062356 -64.595524 0.000001 -0.000001 0.000001 0.000001 -0.000004 -0.000000 5.371911 7.649919 6.016579 -0.923838 -2.266506 61.490301 11.332950 19.963362 -4.155452 -0.556957 6.540674 6.112491 15.788512 -2.734495 -17.205868 -2.198309 -31.113554 7.361249 -0.000000 0.000000 -0.000002 2.356580 -3.665484 8.486428 -2.148030 -2.474381 18.673054 0.000001 0.000000 0.000002 -1.949740 -5.711892 13.664576 0.285533 -5.118489 26.987930 0.000001 0.000000 0.000001 -3.285461 -8.563104 11.765525 4.016025 -4.058703 33.261618 -0.000001 -0.000001 -0.000002 -6.472959 -11.357386 23.259666 10.723068 -2.562645 34.823730 -0.000001 0.000001 -0.000005 -0.000000 0.000000 0.000002 0.000001 -0.000002 0.000001 0.000001 0.000002 -0.000001 0.000001 -0.000002 0.000001 0.000001 -0.000002 0.000001 0.000001 -0.000002 0.000001 0.000001 0.000002 -0.000000 0.000001 -0.000002 0.000001 0.000001 -0.000002 0.000001 0.000001 -0.000002 0.000001 0.000001 0.000002 -0.000000 -0.000000 0.000000 -0.000000 -0.000000 0.000000 -0.000000 -0.000000 0.000000 -0.000000 
-0.052889 70.322014 0.140200 3.063545 -28.981527 1.241675 0.000000 -0.000001 0.000000 -15.158836 18.708279 9.402001 17.211652 13.233229 -0.918309 -4.506193 -4.008589 -5.125753 0.000000 -0.000000 0.000000 0.000001 0.000001 -0.000000 -5.010383 -1.994140 -9.131341 9.871940 9.457752 0.755543 -8.589644 -1.014500 7.189709 0.000000 0.000000 0.000000 -0.000000 -0.000004 -0.000000 7.801934 -0.318836 -2.565041 1.069919 -0.850852 2.338201 1.071723 -0.564521 2.393501 -3.887047 17.968749 -6.472190 -6.178722 12.979368 0.229544 0.000000 0.000000 -0.000000 0.000000 0.000000 -0.000000 0.000000 0.000000 -0.000000 0.000000 0.000000 -0.000000 0.000000 -0.000000 -0.000000 0.000000 0.000000 -0.000000 0.000000 -0.000000 -0.000000 0.000000 0.000000 -0.000000 0.000000 0.000000 -0.000000 -0.046686 -8.759586 0.089228 -55.495751 -0.579119 -39.439483 14.603189 -65.344932 15.856527 -50.081088 11.905716 4.597180 17.551585 -5.699194 -12.932298 10.850507 26.127709 8.644805 0.000001 -0.000000 0.000000 13.980899 1.201542 -55.004415 0.370785 1.161731 -65.441852 0.000001 -0.000001 0.000001 7.504713 1.174524 -63.778531 1.807797 1.475616 -64.567909 0.000002 -0.000001 -0.000001 8.574295 2.179085 -75.149040 -0.207616 1.009266 -57.855042 0.000001 0.000000 -0.000001 10.030077 13.637104 -84.750285 0.877100 0.062356 -64.595524 0.000000 -0.000001 0.000001 0.000002 0.000000 -0.000000 5.666959 7.592530 6.252232 -0.943286 -2.286692 61.342694 11.353790 20.523484 -4.246300 -0.566537 6.504685 6.251780 15.788513 -2.734496 -17.205868 -2.198312 -31.113550 7.361248 0.000000 -0.000002 -0.000001 2.356578 -3.665492 8.486444 -2.148042 -2.474374 18.673070 -0.000000 0.000000 -0.000001 -1.949748 -5.711904 13.664593 0.285537 -5.118482 26.987945 0.000001 -0.000001 0.000001 -3.285458 -8.563111 11.765546 4.016018 -4.058710 33.261631 0.000000 0.000000 -0.000004 -6.472959 -11.357392 23.259699 10.723061 -2.562649 34.823733 -0.000001 0.000001 0.000001 0.000000 0.000000 0.000000 -0.000000 -0.000000 -0.000000 -0.000000 -0.000000 -0.000000 -0.000000 -0.000000 -0.000000 -0.000000 -0.000000 -0.000000 -0.000000 -0.000000 -0.000000 -0.000000 -0.000000 -0.000000 -0.000000 -0.000000 -0.000000 -0.000000 -0.000000 -0.000000 -0.000000 -0.000000 -0.000000 -0.000000 -0.000000 -0.000000 0.000000 -0.000001 0.000000 0.000000 -0.000001 0.000000 0.000000 -0.000001 0.000000 
-0.073239 70.313538 0.154727 3.105327 -28.955723 1.281417 -0.000000 0.000000 0.000000 -15.200164 18.706824 9.405286 17.260146 13.216325 -0.934128 -4.539649 -4.003620 -5.144318 -0.000000 -0.000000 -0.000000 0.000000 -0.000001 0.000000 -4.682561 -2.056168 -9.116202 9.236438 9.343560 0.737906 -8.464414 -1.014093 7.241334 -0.000000 0.000000 -0.000000 0.000000 -0.000003 -0.000000 7.816353 -0.330203 -2.600803 1.060852 -0.852468 2.334410 1.068724 -0.564255 2.390488 -3.925057 17.960242 -6.490406 -6.149702 12.969860 0.208759 0.000000 -0.000000 0.000000 0.000000 -0.000000 0.000000 0.000000 -0.000000 0.000000 0.000000 -0.000000 -0.000000 0.000000 -0.000000 -0.000000 0.000000 -0.000000 -0.000000 0.000000 -0.000000 -0.000000 0.000000 -0.000000 0.000000 0.000000 -0.000000 0.000000 -0.040195 -8.726259 0.142698 -55.639728 -0.893231 -38.649107 16.613979 -64.838945 17.722066 -50.051804 11.731734 4.647647 17.551583 -5.699188 -12.932302 10.850506 26.127707 8.644805 -0.000000 0.000001 -0.000001 13.980899 1.201541 -55.004418 0.370783 1.161731 -65.441852 0.000000 0.000001 -0.000002 7.504712 1.174527 -63.778524 1.807795 1.475617 -64.567909 0.000002 0.000001 0.000003 8.574297 2.179085 -75.149040 -0.207614 1.009266 -57.855042 -0.000001 -0.000000 0.000004 10.030076 13.637106 -84.750285 0.877097 0.062356 -64.595524 -0.000000 -0.000001 0.000003 0.000001 0.000003 -0.000001 5.971697 7.543326 6.503460 -0.972380 -2.302850 61.205004 11.377369 21.109162 -4.340324 -0.577324 6.468695 6.391721 15.788513 -2.734493 -17.205870 -2.198311 -31.113554 7.361250 0.000001 0.000002 -0.000001 2.356577 -3.665484 8.486428 -2.148046 -2.474384 18.673092 -0.000001 -0.000000 0.000002 -1.949753 -5.711907 13.664590 0.285533 -5.118478 26.987930 -0.000000 -0.000000 0.000001 -3.285461 -8.563110 11.765546 4.016027 -4.058702 33.261624 -0.000001 0.000000 -0.000004 -6.472968 -11.357387 23.259653 10.723059 -2.562639 34.823713 -0.000001 0.000000 0.000002 -0.000001 -0.000000 0.000001 -0.000000 -0.000000 -0.000000 -0.000000 -0.000002 -0.000000 -0.000000 -0.000000 0.000000 -0.000000 -0.000000 0.000000 -0.000000 -0.000000 -0.000000 -0.000000 -0.000002 -0.000000 -0.000000 -0.000000 0.000000 -0.000000 -0.000000 0.000000 -0.000000 -0.000000 -0.000000 -0.000000 -0.000002 -0.000000 -0.000000 0.000000 0.000000 -0.000000 0.000000 0.000000 -0.000000 0.000000 0.000000 
